<?xml version="1.0" encoding="UTF-8"?>
<svg width="51px" height="51px" viewBox="0 0 51 51" version="1.1" xmlns="http://www.w3.org/2000/svg" xmlns:xlink="http://www.w3.org/1999/xlink">
    <title>7015753F-CAA8-44C9-8099-3D594DB7AE5E</title>
    <g id="PC-(responsive-format)-V2" stroke="none" stroke-width="1" fill="none" fill-rule="evenodd">
        <g id="06.2-Fiche-profil-user-avis" transform="translate(-143.000000, -553.000000)">
            <g id="Group" transform="translate(143.000000, 553.000000)">
                <circle id="Oval" fill="#BFBDBD" cx="25.5" cy="25.5" r="25.5"></circle>
                <g id="icons8-user" transform="translate(12.000000, 12.000000)" fill="#FEFEFE" fill-rule="nonzero">
                    <path d="M13.5,0 C10.1862915,0 7.5,2.6862915 7.5,6 C7.5,9.3137085 10.1862915,12 13.5,12 C16.8137085,12 19.5,9.3137085 19.5,6 C19.5,2.6862915 16.8137085,0 13.5,0 Z M13.5,16.5 C8.994,16.5 0,18.762 0,23.25 L0,25.5 C0,26.328 0.672,27 1.5,27 L25.5,27 C26.328,27 27,26.328 27,25.5 L27,23.25 C27,18.762 18.006,16.5 13.5,16.5 Z" id="Shape"></path>
                </g>
            </g>
        </g>
    </g>
</svg>